<mxfile host="app.diagrams.net" modified="2023-06-21T12:04:15.353Z" agent="Mozilla/5.0 (Macintosh; Intel Mac OS X 10_15_7) AppleWebKit/537.36 (KHTML, like Gecko) Chrome/114.0.0.0 Safari/537.36" etag="ba5XmJj0qLWLWRxLTOyG" version="21.5.0" type="device">
  <diagram name="Page-1" id="gxK3F5GTNdJ7NV5_PON7">
    <mxGraphModel dx="1972" dy="1862" grid="1" gridSize="10" guides="1" tooltips="1" connect="1" arrows="1" fold="1" page="1" pageScale="1" pageWidth="850" pageHeight="1100" math="0" shadow="0">
      <root>
        <mxCell id="0" />
        <mxCell id="1" parent="0" />
        <mxCell id="gEwuZWGYTY2QDqaIFwxL-1" value="" style="shape=cylinder3;whiteSpace=wrap;html=1;boundedLbl=1;backgroundOutline=1;size=15;fillColor=#fff2cc;strokeColor=#d6b656;" vertex="1" parent="1">
          <mxGeometry x="140" y="-10" width="110" height="250" as="geometry" />
        </mxCell>
        <mxCell id="gEwuZWGYTY2QDqaIFwxL-2" value="" style="shape=flexArrow;endArrow=classic;html=1;rounded=0;endWidth=24;endSize=10;fillColor=#f8cecc;strokeColor=#b85450;" edge="1" parent="1">
          <mxGeometry width="50" height="50" relative="1" as="geometry">
            <mxPoint x="400" y="130" as="sourcePoint" />
            <mxPoint x="250" y="130" as="targetPoint" />
          </mxGeometry>
        </mxCell>
        <mxCell id="gEwuZWGYTY2QDqaIFwxL-3" value="&lt;font style=&quot;font-size: 24px;&quot;&gt;top&lt;/font&gt;" style="edgeLabel;html=1;align=center;verticalAlign=middle;resizable=0;points=[];" vertex="1" connectable="0" parent="gEwuZWGYTY2QDqaIFwxL-2">
          <mxGeometry x="0.32" relative="1" as="geometry">
            <mxPoint as="offset" />
          </mxGeometry>
        </mxCell>
        <mxCell id="gEwuZWGYTY2QDqaIFwxL-4" value="1" style="ellipse;whiteSpace=wrap;html=1;aspect=fixed;fillColor=#dae8fc;strokeColor=#6c8ebf;" vertex="1" parent="1">
          <mxGeometry x="172.5" y="170" width="50" height="50" as="geometry" />
        </mxCell>
        <mxCell id="gEwuZWGYTY2QDqaIFwxL-6" value="2" style="ellipse;whiteSpace=wrap;html=1;aspect=fixed;fillColor=#dae8fc;strokeColor=#6c8ebf;" vertex="1" parent="1">
          <mxGeometry x="172.5" y="100" width="50" height="50" as="geometry" />
        </mxCell>
        <mxCell id="gEwuZWGYTY2QDqaIFwxL-7" value="3" style="ellipse;whiteSpace=wrap;html=1;aspect=fixed;fillColor=#dae8fc;strokeColor=#6c8ebf;" vertex="1" parent="1">
          <mxGeometry x="420" width="50" height="50" as="geometry" />
        </mxCell>
        <mxCell id="gEwuZWGYTY2QDqaIFwxL-8" value="&lt;p style=&quot;language:en-JO;margin-top:0pt;margin-bottom:0pt;margin-left:0in;&#xa;text-align:left;direction:ltr;unicode-bidi:embed;mso-line-break-override:none;&#xa;word-break:normal;punctuation-wrap:hanging&quot;&gt;&lt;span style=&quot;font-size:18.0pt;&#xa;font-family:Menlo;mso-ascii-font-family:Menlo;mso-fareast-font-family:+mn-ea;&#xa;mso-bidi-font-family:+mn-cs;mso-fareast-theme-font:minor-fareast;mso-bidi-theme-font:&#xa;minor-bidi;color:blue;mso-font-kerning:12.0pt;language:en-US;font-weight:normal;&#xa;mso-style-textfill-type:solid;mso-style-textfill-fill-color:blue;mso-style-textfill-fill-alpha:&#xa;100.0%&quot;&gt;void&lt;/span&gt;&lt;span style=&quot;font-size:18.0pt;font-family:Menlo;mso-ascii-font-family:&#xa;Menlo;mso-fareast-font-family:+mn-ea;mso-bidi-font-family:+mn-cs;mso-fareast-theme-font:&#xa;minor-fareast;mso-bidi-theme-font:minor-bidi;color:black;mso-font-kerning:12.0pt;&#xa;language:en-US;font-weight:normal;mso-style-textfill-type:solid;mso-style-textfill-fill-color:&#xa;black;mso-style-textfill-fill-alpha:100.0%&quot;&gt; push(String data) &lt;/span&gt;&lt;/p&gt;&#xa;&#xa;&lt;p style=&quot;language:en-JO;margin-top:0pt;margin-bottom:0pt;margin-left:0in;&#xa;text-align:left;direction:ltr;unicode-bidi:embed;mso-line-break-override:none;&#xa;word-break:normal;punctuation-wrap:hanging&quot;&gt;&lt;span style=&quot;font-size:18.0pt;&#xa;font-family:Menlo;mso-ascii-font-family:Menlo;mso-fareast-font-family:+mn-ea;&#xa;mso-bidi-font-family:+mn-cs;mso-fareast-theme-font:minor-fareast;mso-bidi-theme-font:&#xa;minor-bidi;color:black;mso-font-kerning:12.0pt;language:en-US;font-weight:normal;&#xa;mso-style-textfill-type:solid;mso-style-textfill-fill-color:black;mso-style-textfill-fill-alpha:&#xa;100.0%&quot;&gt;&amp;nbsp;&amp;nbsp;&amp;nbsp;&amp;nbsp;{&lt;/span&gt;&lt;/p&gt;&#xa;&#xa;&lt;p style=&quot;language:en-JO;margin-top:0pt;margin-bottom:0pt;margin-left:0in;&#xa;text-align:left;direction:ltr;unicode-bidi:embed;mso-line-break-override:none;&#xa;word-break:normal;punctuation-wrap:hanging&quot;&gt;&lt;span style=&quot;font-size:18.0pt;&#xa;font-family:Menlo;mso-ascii-font-family:Menlo;mso-fareast-font-family:+mn-ea;&#xa;mso-bidi-font-family:+mn-cs;mso-fareast-theme-font:minor-fareast;mso-bidi-theme-font:&#xa;minor-bidi;color:black;mso-font-kerning:12.0pt;language:en-US;font-weight:normal;&#xa;mso-style-textfill-type:solid;mso-style-textfill-fill-color:black;mso-style-textfill-fill-alpha:&#xa;100.0%&quot;&gt;&amp;nbsp;&amp;nbsp;&amp;nbsp;&amp;nbsp;&amp;nbsp;&amp;nbsp;&amp;nbsp;&amp;nbsp;top++;&lt;/span&gt;&lt;/p&gt;&#xa;&#xa;&lt;p style=&quot;language:en-JO;margin-top:0pt;margin-bottom:0pt;margin-left:0in;&#xa;text-align:left;direction:ltr;unicode-bidi:embed;mso-line-break-override:none;&#xa;word-break:normal;punctuation-wrap:hanging&quot;&gt;&lt;span style=&quot;font-size:18.0pt;&#xa;font-family:Menlo;mso-ascii-font-family:Menlo;mso-fareast-font-family:+mn-ea;&#xa;mso-bidi-font-family:+mn-cs;mso-fareast-theme-font:minor-fareast;mso-bidi-theme-font:&#xa;minor-bidi;color:black;mso-font-kerning:12.0pt;language:en-US;font-weight:normal;&#xa;mso-style-textfill-type:solid;mso-style-textfill-fill-color:black;mso-style-textfill-fill-alpha:&#xa;100.0%&quot;&gt;&amp;nbsp;&amp;nbsp;&amp;nbsp;&amp;nbsp;&amp;nbsp;&amp;nbsp;&amp;nbsp;&amp;nbsp;&lt;/span&gt;&lt;/p&gt;&#xa;&#xa;&lt;p style=&quot;language:en-JO;margin-top:0pt;margin-bottom:0pt;margin-left:0in;&#xa;text-align:left;direction:ltr;unicode-bidi:embed;mso-line-break-override:none;&#xa;word-break:normal;punctuation-wrap:hanging&quot;&gt;&lt;span style=&quot;font-size:18.0pt;&#xa;font-family:Menlo;mso-ascii-font-family:Menlo;mso-fareast-font-family:+mn-ea;&#xa;mso-bidi-font-family:+mn-cs;mso-fareast-theme-font:minor-fareast;mso-bidi-theme-font:&#xa;minor-bidi;color:black;mso-font-kerning:12.0pt;language:en-US;font-weight:normal;&#xa;mso-style-textfill-type:solid;mso-style-textfill-fill-color:black;mso-style-textfill-fill-alpha:&#xa;100.0%&quot;&gt;&amp;nbsp;&amp;nbsp;&amp;nbsp;&amp;nbsp;&amp;nbsp;&amp;nbsp;&amp;nbsp;&amp;nbsp;&lt;/span&gt;&lt;span style=&quot;font-size:18.0pt;font-family:Menlo;mso-ascii-font-family:Menlo;&#xa;mso-fareast-font-family:+mn-ea;mso-bidi-font-family:+mn-cs;mso-fareast-theme-font:&#xa;minor-fareast;mso-bidi-theme-font:minor-bidi;color:black;mso-font-kerning:12.0pt;&#xa;language:en-US;font-weight:normal;mso-style-textfill-type:solid;mso-style-textfill-fill-color:&#xa;black;mso-style-textfill-fill-alpha:100.0%&quot;&gt;arr&lt;/span&gt;&lt;span style=&quot;font-size:&#xa;18.0pt;font-family:Menlo;mso-ascii-font-family:Menlo;mso-fareast-font-family:&#xa;+mn-ea;mso-bidi-font-family:+mn-cs;mso-fareast-theme-font:minor-fareast;&#xa;mso-bidi-theme-font:minor-bidi;color:black;mso-font-kerning:12.0pt;language:&#xa;en-US;font-weight:normal;mso-style-textfill-type:solid;mso-style-textfill-fill-color:&#xa;black;mso-style-textfill-fill-alpha:100.0%&quot;&gt;[top]=data;&lt;/span&gt;&lt;/p&gt;&#xa;&#xa;&lt;p style=&quot;language:en-JO;margin-top:0pt;margin-bottom:0pt;margin-left:0in;&#xa;text-align:left;direction:ltr;unicode-bidi:embed;mso-line-break-override:none;&#xa;word-break:normal;punctuation-wrap:hanging&quot;&gt;&lt;span style=&quot;font-size:18.0pt;&#xa;font-family:Menlo;mso-ascii-font-family:Menlo;mso-fareast-font-family:+mn-ea;&#xa;mso-bidi-font-family:+mn-cs;mso-fareast-theme-font:minor-fareast;mso-bidi-theme-font:&#xa;minor-bidi;color:black;mso-font-kerning:12.0pt;language:en-US;font-weight:normal;&#xa;mso-style-textfill-type:solid;mso-style-textfill-fill-color:black;mso-style-textfill-fill-alpha:&#xa;100.0%&quot;&gt;&amp;nbsp;&amp;nbsp;&amp;nbsp;&amp;nbsp;}&lt;/span&gt;&lt;/p&gt;" style="text;whiteSpace=wrap;html=1;fillColor=#d5e8d4;strokeColor=#82b366;" vertex="1" parent="1">
          <mxGeometry x="-320" y="400" width="300" height="380" as="geometry" />
        </mxCell>
        <mxCell id="gEwuZWGYTY2QDqaIFwxL-9" value="&lt;p style=&quot;language:en-JO;margin-top:0pt;margin-bottom:0pt;margin-left:0in;&#xa;text-align:left;direction:ltr;unicode-bidi:embed;mso-line-break-override:none;&#xa;word-break:normal;punctuation-wrap:hanging&quot;&gt;&lt;span style=&quot;font-size:18.0pt;&#xa;font-family:Menlo;mso-ascii-font-family:Menlo;mso-fareast-font-family:+mn-ea;&#xa;mso-bidi-font-family:+mn-cs;mso-fareast-theme-font:minor-fareast;mso-bidi-theme-font:&#xa;minor-bidi;color:blue;mso-font-kerning:12.0pt;language:en-US;font-weight:normal;&#xa;mso-style-textfill-type:solid;mso-style-textfill-fill-color:blue;mso-style-textfill-fill-alpha:&#xa;100.0%&quot;&gt;boolean&lt;/span&gt;&lt;span style=&quot;font-size:18.0pt;font-family:Menlo;&#xa;mso-ascii-font-family:Menlo;mso-fareast-font-family:+mn-ea;mso-bidi-font-family:&#xa;+mn-cs;mso-fareast-theme-font:minor-fareast;mso-bidi-theme-font:minor-bidi;&#xa;color:black;mso-font-kerning:12.0pt;language:en-US;font-weight:normal;&#xa;mso-style-textfill-type:solid;mso-style-textfill-fill-color:black;mso-style-textfill-fill-alpha:&#xa;100.0%&quot;&gt; &lt;/span&gt;&lt;span style=&quot;font-size:18.0pt;font-family:Menlo;mso-ascii-font-family:&#xa;Menlo;mso-fareast-font-family:+mn-ea;mso-bidi-font-family:+mn-cs;mso-fareast-theme-font:&#xa;minor-fareast;mso-bidi-theme-font:minor-bidi;color:black;mso-font-kerning:12.0pt;&#xa;language:en-US;font-weight:normal;mso-style-textfill-type:solid;mso-style-textfill-fill-color:&#xa;black;mso-style-textfill-fill-alpha:100.0%&quot;&gt;isEmpty&lt;/span&gt;&lt;span style=&quot;font-size:18.0pt;font-family:Menlo;mso-ascii-font-family:Menlo;&#xa;mso-fareast-font-family:+mn-ea;mso-bidi-font-family:+mn-cs;mso-fareast-theme-font:&#xa;minor-fareast;mso-bidi-theme-font:minor-bidi;color:black;mso-font-kerning:12.0pt;&#xa;language:en-US;font-weight:normal;mso-style-textfill-type:solid;mso-style-textfill-fill-color:&#xa;black;mso-style-textfill-fill-alpha:100.0%&quot;&gt;() &lt;/span&gt;&lt;/p&gt;&#xa;&#xa;&lt;p style=&quot;language:en-JO;margin-top:0pt;margin-bottom:0pt;margin-left:0in;&#xa;text-align:left;direction:ltr;unicode-bidi:embed;mso-line-break-override:none;&#xa;word-break:normal;punctuation-wrap:hanging&quot;&gt;&lt;span style=&quot;font-size:18.0pt;&#xa;font-family:Menlo;mso-ascii-font-family:Menlo;mso-fareast-font-family:+mn-ea;&#xa;mso-bidi-font-family:+mn-cs;mso-fareast-theme-font:minor-fareast;mso-bidi-theme-font:&#xa;minor-bidi;color:black;mso-font-kerning:12.0pt;language:en-US;font-weight:normal;&#xa;mso-style-textfill-type:solid;mso-style-textfill-fill-color:black;mso-style-textfill-fill-alpha:&#xa;100.0%&quot;&gt;&amp;nbsp;&amp;nbsp;&amp;nbsp;&amp;nbsp;{&lt;/span&gt;&lt;/p&gt;&#xa;&#xa;&lt;p style=&quot;language:en-JO;margin-top:0pt;margin-bottom:0pt;margin-left:0in;&#xa;text-align:left;direction:ltr;unicode-bidi:embed;mso-line-break-override:none;&#xa;word-break:normal;punctuation-wrap:hanging&quot;&gt;&lt;span style=&quot;font-size:18.0pt;&#xa;font-family:Menlo;mso-ascii-font-family:Menlo;mso-fareast-font-family:+mn-ea;&#xa;mso-bidi-font-family:+mn-cs;mso-fareast-theme-font:minor-fareast;mso-bidi-theme-font:&#xa;minor-bidi;color:black;mso-font-kerning:12.0pt;language:en-US;font-weight:normal;&#xa;mso-style-textfill-type:solid;mso-style-textfill-fill-color:black;mso-style-textfill-fill-alpha:&#xa;100.0%&quot;&gt;&amp;nbsp;&amp;nbsp;&amp;nbsp;&amp;nbsp;&amp;nbsp;&amp;nbsp;&amp;nbsp;&amp;nbsp;&lt;/span&gt;&lt;span style=&quot;font-size:18.0pt;font-family:Menlo;mso-ascii-font-family:Menlo;&#xa;mso-fareast-font-family:+mn-ea;mso-bidi-font-family:+mn-cs;mso-fareast-theme-font:&#xa;minor-fareast;mso-bidi-theme-font:minor-bidi;color:blue;mso-font-kerning:12.0pt;&#xa;language:en-US;font-weight:normal;mso-style-textfill-type:solid;mso-style-textfill-fill-color:&#xa;blue;mso-style-textfill-fill-alpha:100.0%&quot;&gt;if&lt;/span&gt;&lt;span style=&quot;font-size:&#xa;18.0pt;font-family:Menlo;mso-ascii-font-family:Menlo;mso-fareast-font-family:&#xa;+mn-ea;mso-bidi-font-family:+mn-cs;mso-fareast-theme-font:minor-fareast;&#xa;mso-bidi-theme-font:minor-bidi;color:black;mso-font-kerning:12.0pt;language:&#xa;en-US;font-weight:normal;mso-style-textfill-type:solid;mso-style-textfill-fill-color:&#xa;black;mso-style-textfill-fill-alpha:100.0%&quot;&gt;(top == -&lt;/span&gt;&lt;span style=&quot;font-size:18.0pt;font-family:Menlo;mso-ascii-font-family:Menlo;&#xa;mso-fareast-font-family:+mn-ea;mso-bidi-font-family:+mn-cs;mso-fareast-theme-font:&#xa;minor-fareast;mso-bidi-theme-font:minor-bidi;color:#09885A;mso-font-kerning:&#xa;12.0pt;language:en-US;font-weight:normal;mso-style-textfill-type:solid;&#xa;mso-style-textfill-fill-color:#09885A;mso-style-textfill-fill-alpha:100.0%&quot;&gt;1&lt;/span&gt;&lt;span style=&quot;font-size:18.0pt;font-family:Menlo;mso-ascii-font-family:Menlo;&#xa;mso-fareast-font-family:+mn-ea;mso-bidi-font-family:+mn-cs;mso-fareast-theme-font:&#xa;minor-fareast;mso-bidi-theme-font:minor-bidi;color:black;mso-font-kerning:12.0pt;&#xa;language:en-US;font-weight:normal;mso-style-textfill-type:solid;mso-style-textfill-fill-color:&#xa;black;mso-style-textfill-fill-alpha:100.0%&quot;&gt;)&lt;/span&gt;&lt;/p&gt;&#xa;&#xa;&lt;p style=&quot;language:en-JO;margin-top:0pt;margin-bottom:0pt;margin-left:0in;&#xa;text-align:left;direction:ltr;unicode-bidi:embed;mso-line-break-override:none;&#xa;word-break:normal;punctuation-wrap:hanging&quot;&gt;&lt;span style=&quot;font-size:18.0pt;&#xa;font-family:Menlo;mso-ascii-font-family:Menlo;mso-fareast-font-family:+mn-ea;&#xa;mso-bidi-font-family:+mn-cs;mso-fareast-theme-font:minor-fareast;mso-bidi-theme-font:&#xa;minor-bidi;color:black;mso-font-kerning:12.0pt;language:en-US;font-weight:normal;&#xa;mso-style-textfill-type:solid;mso-style-textfill-fill-color:black;mso-style-textfill-fill-alpha:&#xa;100.0%&quot;&gt;&amp;nbsp;&amp;nbsp;&amp;nbsp;&amp;nbsp;&amp;nbsp;&amp;nbsp;&amp;nbsp;&amp;nbsp;&amp;nbsp;&amp;nbsp;&amp;nbsp;&amp;nbsp;&lt;/span&gt;&lt;span style=&quot;font-size:18.0pt;font-family:Menlo;mso-ascii-font-family:Menlo;&#xa;mso-fareast-font-family:+mn-ea;mso-bidi-font-family:+mn-cs;mso-fareast-theme-font:&#xa;minor-fareast;mso-bidi-theme-font:minor-bidi;color:blue;mso-font-kerning:12.0pt;&#xa;language:en-US;font-weight:normal;mso-style-textfill-type:solid;mso-style-textfill-fill-color:&#xa;blue;mso-style-textfill-fill-alpha:100.0%&quot;&gt;return&lt;/span&gt;&lt;span style=&quot;font-size:&#xa;18.0pt;font-family:Menlo;mso-ascii-font-family:Menlo;mso-fareast-font-family:&#xa;+mn-ea;mso-bidi-font-family:+mn-cs;mso-fareast-theme-font:minor-fareast;&#xa;mso-bidi-theme-font:minor-bidi;color:black;mso-font-kerning:12.0pt;language:&#xa;en-US;font-weight:normal;mso-style-textfill-type:solid;mso-style-textfill-fill-color:&#xa;black;mso-style-textfill-fill-alpha:100.0%&quot;&gt; &lt;/span&gt;&lt;span style=&quot;font-size:&#xa;18.0pt;font-family:Menlo;mso-ascii-font-family:Menlo;mso-fareast-font-family:&#xa;+mn-ea;mso-bidi-font-family:+mn-cs;mso-fareast-theme-font:minor-fareast;&#xa;mso-bidi-theme-font:minor-bidi;color:blue;mso-font-kerning:12.0pt;language:&#xa;en-US;font-weight:normal;mso-style-textfill-type:solid;mso-style-textfill-fill-color:&#xa;blue;mso-style-textfill-fill-alpha:100.0%&quot;&gt;true&lt;/span&gt;&lt;span style=&quot;font-size:&#xa;18.0pt;font-family:Menlo;mso-ascii-font-family:Menlo;mso-fareast-font-family:&#xa;+mn-ea;mso-bidi-font-family:+mn-cs;mso-fareast-theme-font:minor-fareast;&#xa;mso-bidi-theme-font:minor-bidi;color:black;mso-font-kerning:12.0pt;language:&#xa;en-US;font-weight:normal;mso-style-textfill-type:solid;mso-style-textfill-fill-color:&#xa;black;mso-style-textfill-fill-alpha:100.0%&quot;&gt;;&lt;/span&gt;&lt;/p&gt;&#xa;&#xa;&lt;p style=&quot;language:en-JO;margin-top:0pt;margin-bottom:0pt;margin-left:0in;&#xa;text-align:left;direction:ltr;unicode-bidi:embed;mso-line-break-override:none;&#xa;word-break:normal;punctuation-wrap:hanging&quot;&gt;&lt;span style=&quot;font-size:18.0pt;&#xa;font-family:Menlo;mso-ascii-font-family:Menlo;mso-fareast-font-family:+mn-ea;&#xa;mso-bidi-font-family:+mn-cs;mso-fareast-theme-font:minor-fareast;mso-bidi-theme-font:&#xa;minor-bidi;color:black;mso-font-kerning:12.0pt;language:en-US;font-weight:normal;&#xa;mso-style-textfill-type:solid;mso-style-textfill-fill-color:black;mso-style-textfill-fill-alpha:&#xa;100.0%&quot;&gt;&amp;nbsp;&amp;nbsp;&amp;nbsp;&amp;nbsp;&amp;nbsp;&amp;nbsp;&amp;nbsp;&amp;nbsp;&lt;/span&gt;&lt;span style=&quot;font-size:18.0pt;font-family:Menlo;mso-ascii-font-family:Menlo;&#xa;mso-fareast-font-family:+mn-ea;mso-bidi-font-family:+mn-cs;mso-fareast-theme-font:&#xa;minor-fareast;mso-bidi-theme-font:minor-bidi;color:blue;mso-font-kerning:12.0pt;&#xa;language:en-US;font-weight:normal;mso-style-textfill-type:solid;mso-style-textfill-fill-color:&#xa;blue;mso-style-textfill-fill-alpha:100.0%&quot;&gt;else&lt;/span&gt;&lt;/p&gt;&#xa;&#xa;&lt;p style=&quot;language:en-JO;margin-top:0pt;margin-bottom:0pt;margin-left:0in;&#xa;text-align:left;direction:ltr;unicode-bidi:embed;mso-line-break-override:none;&#xa;word-break:normal;punctuation-wrap:hanging&quot;&gt;&lt;span style=&quot;font-size:18.0pt;&#xa;font-family:Menlo;mso-ascii-font-family:Menlo;mso-fareast-font-family:+mn-ea;&#xa;mso-bidi-font-family:+mn-cs;mso-fareast-theme-font:minor-fareast;mso-bidi-theme-font:&#xa;minor-bidi;color:black;mso-font-kerning:12.0pt;language:en-US;font-weight:normal;&#xa;mso-style-textfill-type:solid;mso-style-textfill-fill-color:black;mso-style-textfill-fill-alpha:&#xa;100.0%&quot;&gt;&amp;nbsp;&amp;nbsp;&amp;nbsp;&amp;nbsp;&amp;nbsp;&amp;nbsp;&amp;nbsp;&amp;nbsp;&amp;nbsp;&amp;nbsp;&amp;nbsp;&amp;nbsp;&lt;/span&gt;&lt;span style=&quot;font-size:18.0pt;font-family:Menlo;mso-ascii-font-family:Menlo;&#xa;mso-fareast-font-family:+mn-ea;mso-bidi-font-family:+mn-cs;mso-fareast-theme-font:&#xa;minor-fareast;mso-bidi-theme-font:minor-bidi;color:blue;mso-font-kerning:12.0pt;&#xa;language:en-US;font-weight:normal;mso-style-textfill-type:solid;mso-style-textfill-fill-color:&#xa;blue;mso-style-textfill-fill-alpha:100.0%&quot;&gt;return&lt;/span&gt;&lt;span style=&quot;font-size:&#xa;18.0pt;font-family:Menlo;mso-ascii-font-family:Menlo;mso-fareast-font-family:&#xa;+mn-ea;mso-bidi-font-family:+mn-cs;mso-fareast-theme-font:minor-fareast;&#xa;mso-bidi-theme-font:minor-bidi;color:black;mso-font-kerning:12.0pt;language:&#xa;en-US;font-weight:normal;mso-style-textfill-type:solid;mso-style-textfill-fill-color:&#xa;black;mso-style-textfill-fill-alpha:100.0%&quot;&gt; &lt;/span&gt;&lt;span style=&quot;font-size:&#xa;18.0pt;font-family:Menlo;mso-ascii-font-family:Menlo;mso-fareast-font-family:&#xa;+mn-ea;mso-bidi-font-family:+mn-cs;mso-fareast-theme-font:minor-fareast;&#xa;mso-bidi-theme-font:minor-bidi;color:blue;mso-font-kerning:12.0pt;language:&#xa;en-US;font-weight:normal;mso-style-textfill-type:solid;mso-style-textfill-fill-color:&#xa;blue;mso-style-textfill-fill-alpha:100.0%&quot;&gt;false&lt;/span&gt;&lt;span style=&quot;font-size:&#xa;18.0pt;font-family:Menlo;mso-ascii-font-family:Menlo;mso-fareast-font-family:&#xa;+mn-ea;mso-bidi-font-family:+mn-cs;mso-fareast-theme-font:minor-fareast;&#xa;mso-bidi-theme-font:minor-bidi;color:black;mso-font-kerning:12.0pt;language:&#xa;en-US;font-weight:normal;mso-style-textfill-type:solid;mso-style-textfill-fill-color:&#xa;black;mso-style-textfill-fill-alpha:100.0%&quot;&gt;;&lt;/span&gt;&lt;/p&gt;&#xa;&#xa;&lt;p style=&quot;language:en-JO;margin-top:0pt;margin-bottom:0pt;margin-left:0in;&#xa;text-align:left;direction:ltr;unicode-bidi:embed;mso-line-break-override:none;&#xa;word-break:normal;punctuation-wrap:hanging&quot;&gt;&lt;span style=&quot;font-size:18.0pt;&#xa;font-family:Menlo;mso-ascii-font-family:Menlo;mso-fareast-font-family:+mn-ea;&#xa;mso-bidi-font-family:+mn-cs;mso-fareast-theme-font:minor-fareast;mso-bidi-theme-font:&#xa;minor-bidi;color:black;mso-font-kerning:12.0pt;language:en-US;font-weight:normal;&#xa;mso-style-textfill-type:solid;mso-style-textfill-fill-color:black;mso-style-textfill-fill-alpha:&#xa;100.0%&quot;&gt;&amp;nbsp;&amp;nbsp;&amp;nbsp;&amp;nbsp;}&lt;/span&gt;&lt;/p&gt;" style="text;whiteSpace=wrap;html=1;fillColor=#d5e8d4;strokeColor=#82b366;" vertex="1" parent="1">
          <mxGeometry x="270" y="400" width="260" height="400" as="geometry" />
        </mxCell>
        <mxCell id="gEwuZWGYTY2QDqaIFwxL-10" value="&lt;p style=&quot;language:en-JO;margin-top:0pt;margin-bottom:0pt;margin-left:0in;&#xa;text-align:left;direction:ltr;unicode-bidi:embed;mso-line-break-override:none;&#xa;word-break:normal;punctuation-wrap:hanging&quot;&gt;&lt;span style=&quot;font-size:18.0pt;&#xa;font-family:Menlo;mso-ascii-font-family:Menlo;mso-fareast-font-family:+mn-ea;&#xa;mso-bidi-font-family:+mn-cs;mso-fareast-theme-font:minor-fareast;mso-bidi-theme-font:&#xa;minor-bidi;color:blue;mso-font-kerning:12.0pt;language:en-US;font-weight:normal;&#xa;mso-style-textfill-type:solid;mso-style-textfill-fill-color:blue;mso-style-textfill-fill-alpha:&#xa;100.0%&quot;&gt;int&lt;/span&gt;&lt;span style=&quot;font-size:18.0pt;font-family:Menlo;mso-ascii-font-family:&#xa;Menlo;mso-fareast-font-family:+mn-ea;mso-bidi-font-family:+mn-cs;mso-fareast-theme-font:&#xa;minor-fareast;mso-bidi-theme-font:minor-bidi;color:black;mso-font-kerning:12.0pt;&#xa;language:en-US;font-weight:normal;mso-style-textfill-type:solid;mso-style-textfill-fill-color:&#xa;black;mso-style-textfill-fill-alpha:100.0%&quot;&gt; count() &lt;/span&gt;&lt;/p&gt;&#xa;&#xa;&lt;p style=&quot;language:en-JO;margin-top:0pt;margin-bottom:0pt;margin-left:0in;&#xa;text-align:left;direction:ltr;unicode-bidi:embed;mso-line-break-override:none;&#xa;word-break:normal;punctuation-wrap:hanging&quot;&gt;&lt;span style=&quot;font-size:18.0pt;&#xa;font-family:Menlo;mso-ascii-font-family:Menlo;mso-fareast-font-family:+mn-ea;&#xa;mso-bidi-font-family:+mn-cs;mso-fareast-theme-font:minor-fareast;mso-bidi-theme-font:&#xa;minor-bidi;color:black;mso-font-kerning:12.0pt;language:en-US;font-weight:normal;&#xa;mso-style-textfill-type:solid;mso-style-textfill-fill-color:black;mso-style-textfill-fill-alpha:&#xa;100.0%&quot;&gt;&amp;nbsp;&amp;nbsp;&amp;nbsp;&amp;nbsp;{&lt;/span&gt;&lt;/p&gt;&#xa;&#xa;&lt;p style=&quot;language:en-JO;margin-top:0pt;margin-bottom:0pt;margin-left:0in;&#xa;text-align:left;direction:ltr;unicode-bidi:embed;mso-line-break-override:none;&#xa;word-break:normal;punctuation-wrap:hanging&quot;&gt;&lt;span style=&quot;font-size:18.0pt;&#xa;font-family:Menlo;mso-ascii-font-family:Menlo;mso-fareast-font-family:+mn-ea;&#xa;mso-bidi-font-family:+mn-cs;mso-fareast-theme-font:minor-fareast;mso-bidi-theme-font:&#xa;minor-bidi;color:black;mso-font-kerning:12.0pt;language:en-US;font-weight:normal;&#xa;mso-style-textfill-type:solid;mso-style-textfill-fill-color:black;mso-style-textfill-fill-alpha:&#xa;100.0%&quot;&gt;&amp;nbsp;&amp;nbsp;&amp;nbsp;&amp;nbsp;&amp;nbsp;&amp;nbsp;&amp;nbsp;&amp;nbsp;&lt;/span&gt;&lt;span style=&quot;font-size:18.0pt;font-family:Menlo;mso-ascii-font-family:Menlo;&#xa;mso-fareast-font-family:+mn-ea;mso-bidi-font-family:+mn-cs;mso-fareast-theme-font:&#xa;minor-fareast;mso-bidi-theme-font:minor-bidi;color:blue;mso-font-kerning:12.0pt;&#xa;language:en-US;font-weight:normal;mso-style-textfill-type:solid;mso-style-textfill-fill-color:&#xa;blue;mso-style-textfill-fill-alpha:100.0%&quot;&gt;return&lt;/span&gt;&lt;span style=&quot;font-size:&#xa;18.0pt;font-family:Menlo;mso-ascii-font-family:Menlo;mso-fareast-font-family:&#xa;+mn-ea;mso-bidi-font-family:+mn-cs;mso-fareast-theme-font:minor-fareast;&#xa;mso-bidi-theme-font:minor-bidi;color:black;mso-font-kerning:12.0pt;language:&#xa;en-US;font-weight:normal;mso-style-textfill-type:solid;mso-style-textfill-fill-color:&#xa;black;mso-style-textfill-fill-alpha:100.0%&quot;&gt; top+&lt;/span&gt;&lt;span style=&quot;font-size:&#xa;18.0pt;font-family:Menlo;mso-ascii-font-family:Menlo;mso-fareast-font-family:&#xa;+mn-ea;mso-bidi-font-family:+mn-cs;mso-fareast-theme-font:minor-fareast;&#xa;mso-bidi-theme-font:minor-bidi;color:#09885A;mso-font-kerning:12.0pt;&#xa;language:en-US;font-weight:normal;mso-style-textfill-type:solid;mso-style-textfill-fill-color:&#xa;#09885A;mso-style-textfill-fill-alpha:100.0%&quot;&gt;1&lt;/span&gt;&lt;span style=&quot;font-size:&#xa;18.0pt;font-family:Menlo;mso-ascii-font-family:Menlo;mso-fareast-font-family:&#xa;+mn-ea;mso-bidi-font-family:+mn-cs;mso-fareast-theme-font:minor-fareast;&#xa;mso-bidi-theme-font:minor-bidi;color:black;mso-font-kerning:12.0pt;language:&#xa;en-US;font-weight:normal;mso-style-textfill-type:solid;mso-style-textfill-fill-color:&#xa;black;mso-style-textfill-fill-alpha:100.0%&quot;&gt;;&lt;/span&gt;&lt;/p&gt;&#xa;&#xa;&lt;p style=&quot;language:en-JO;margin-top:0pt;margin-bottom:0pt;margin-left:0in;&#xa;text-align:left;direction:ltr;unicode-bidi:embed;mso-line-break-override:none;&#xa;word-break:normal;punctuation-wrap:hanging&quot;&gt;&lt;span style=&quot;font-size:18.0pt;&#xa;font-family:Menlo;mso-ascii-font-family:Menlo;mso-fareast-font-family:+mn-ea;&#xa;mso-bidi-font-family:+mn-cs;mso-fareast-theme-font:minor-fareast;mso-bidi-theme-font:&#xa;minor-bidi;color:black;mso-font-kerning:12.0pt;language:en-US;font-weight:normal;&#xa;mso-style-textfill-type:solid;mso-style-textfill-fill-color:black;mso-style-textfill-fill-alpha:&#xa;100.0%&quot;&gt;&amp;nbsp;&amp;nbsp;&amp;nbsp;&amp;nbsp;}&lt;/span&gt;&lt;/p&gt;" style="text;whiteSpace=wrap;html=1;fillColor=#d5e8d4;strokeColor=#82b366;" vertex="1" parent="1">
          <mxGeometry x="630" y="400" width="220" height="230" as="geometry" />
        </mxCell>
        <mxCell id="gEwuZWGYTY2QDqaIFwxL-11" value="&lt;p style=&quot;language:en-JO;margin-top:0pt;margin-bottom:0pt;margin-left:0in;&#xa;text-align:left;direction:ltr;unicode-bidi:embed;mso-line-break-override:none;&#xa;word-break:normal;punctuation-wrap:hanging&quot;&gt;&lt;span style=&quot;font-size:18.0pt;&#xa;font-family:Menlo;mso-ascii-font-family:Menlo;mso-fareast-font-family:+mn-ea;&#xa;mso-bidi-font-family:+mn-cs;mso-fareast-theme-font:minor-fareast;mso-bidi-theme-font:&#xa;minor-bidi;color:blue;mso-font-kerning:12.0pt;language:en-US;font-weight:normal;&#xa;mso-style-textfill-type:solid;mso-style-textfill-fill-color:blue;mso-style-textfill-fill-alpha:&#xa;100.0%&quot;&gt;void&lt;/span&gt;&lt;span style=&quot;font-size:18.0pt;font-family:Menlo;mso-ascii-font-family:&#xa;Menlo;mso-fareast-font-family:+mn-ea;mso-bidi-font-family:+mn-cs;mso-fareast-theme-font:&#xa;minor-fareast;mso-bidi-theme-font:minor-bidi;color:black;mso-font-kerning:12.0pt;&#xa;language:en-US;font-weight:normal;mso-style-textfill-type:solid;mso-style-textfill-fill-color:&#xa;black;mso-style-textfill-fill-alpha:100.0%&quot;&gt; pop() &lt;/span&gt;&lt;/p&gt;&#xa;&#xa;&lt;p style=&quot;language:en-JO;margin-top:0pt;margin-bottom:0pt;margin-left:0in;&#xa;text-align:left;direction:ltr;unicode-bidi:embed;mso-line-break-override:none;&#xa;word-break:normal;punctuation-wrap:hanging&quot;&gt;&lt;span style=&quot;font-size:18.0pt;&#xa;font-family:Menlo;mso-ascii-font-family:Menlo;mso-fareast-font-family:+mn-ea;&#xa;mso-bidi-font-family:+mn-cs;mso-fareast-theme-font:minor-fareast;mso-bidi-theme-font:&#xa;minor-bidi;color:black;mso-font-kerning:12.0pt;language:en-US;font-weight:normal;&#xa;mso-style-textfill-type:solid;mso-style-textfill-fill-color:black;mso-style-textfill-fill-alpha:&#xa;100.0%&quot;&gt;&amp;nbsp;&amp;nbsp;&amp;nbsp;&amp;nbsp;{&lt;/span&gt;&lt;/p&gt;&#xa;&#xa;&lt;p style=&quot;language:en-JO;margin-top:0pt;margin-bottom:0pt;margin-left:0in;&#xa;text-align:left;direction:ltr;unicode-bidi:embed;mso-line-break-override:none;&#xa;word-break:normal;punctuation-wrap:hanging&quot;&gt;&lt;span style=&quot;font-size:18.0pt;&#xa;font-family:Menlo;mso-ascii-font-family:Menlo;mso-fareast-font-family:+mn-ea;&#xa;mso-bidi-font-family:+mn-cs;mso-fareast-theme-font:minor-fareast;mso-bidi-theme-font:&#xa;minor-bidi;color:black;mso-font-kerning:12.0pt;language:en-US;font-weight:normal;&#xa;mso-style-textfill-type:solid;mso-style-textfill-fill-color:black;mso-style-textfill-fill-alpha:&#xa;100.0%&quot;&gt;&amp;nbsp;&amp;nbsp;&amp;nbsp;&amp;nbsp;&amp;nbsp;&amp;nbsp;&amp;nbsp;&amp;nbsp;top--;&lt;/span&gt;&lt;/p&gt;&#xa;&#xa;&lt;p style=&quot;language:en-JO;margin-top:0pt;margin-bottom:0pt;margin-left:0in;&#xa;text-align:left;direction:ltr;unicode-bidi:embed;mso-line-break-override:none;&#xa;word-break:normal;punctuation-wrap:hanging&quot;&gt;&lt;span style=&quot;font-size:18.0pt;&#xa;font-family:Menlo;mso-ascii-font-family:Menlo;mso-fareast-font-family:+mn-ea;&#xa;mso-bidi-font-family:+mn-cs;mso-fareast-theme-font:minor-fareast;mso-bidi-theme-font:&#xa;minor-bidi;color:black;mso-font-kerning:12.0pt;language:en-US;font-weight:normal;&#xa;mso-style-textfill-type:solid;mso-style-textfill-fill-color:black;mso-style-textfill-fill-alpha:&#xa;100.0%&quot;&gt;&amp;nbsp;&amp;nbsp;&amp;nbsp;&amp;nbsp;}&lt;/span&gt;&lt;/p&gt;&#xa;&#xa;&lt;p style=&quot;language:en-JO;margin-top:0pt;margin-bottom:0pt;margin-left:0in;&#xa;text-align:left;direction:ltr;unicode-bidi:embed;mso-line-break-override:none;&#xa;word-break:normal;punctuation-wrap:hanging&quot;&gt;&lt;span style=&quot;font-size:18.0pt;&#xa;font-family:Menlo;mso-ascii-font-family:Menlo;mso-fareast-font-family:+mn-ea;&#xa;mso-bidi-font-family:+mn-cs;mso-fareast-theme-font:minor-fareast;mso-bidi-theme-font:&#xa;minor-bidi;color:black;mso-font-kerning:12.0pt;language:en-US;font-weight:normal;&#xa;mso-style-textfill-type:solid;mso-style-textfill-fill-color:black;mso-style-textfill-fill-alpha:&#xa;100.0%&quot;&gt;&amp;nbsp;&amp;nbsp;&amp;nbsp;&amp;nbsp;&lt;/span&gt;&lt;/p&gt;" style="text;whiteSpace=wrap;html=1;fillColor=#d5e8d4;strokeColor=#82b366;" vertex="1" parent="1">
          <mxGeometry x="30" y="400" width="160" height="280" as="geometry" />
        </mxCell>
        <mxCell id="gEwuZWGYTY2QDqaIFwxL-12" value="&lt;font style=&quot;font-size: 48px;&quot;&gt;Stack&lt;/font&gt;" style="text;html=1;strokeColor=none;fillColor=none;align=center;verticalAlign=middle;whiteSpace=wrap;rounded=0;" vertex="1" parent="1">
          <mxGeometry x="100" y="-250" width="195" height="120" as="geometry" />
        </mxCell>
        <mxCell id="gEwuZWGYTY2QDqaIFwxL-13" value="&lt;font style=&quot;font-size: 36px;&quot;&gt;queue&lt;/font&gt;" style="text;html=1;strokeColor=none;fillColor=none;align=center;verticalAlign=middle;whiteSpace=wrap;rounded=0;" vertex="1" parent="1">
          <mxGeometry x="30" y="1040" width="260" height="60" as="geometry" />
        </mxCell>
        <mxCell id="gEwuZWGYTY2QDqaIFwxL-14" value="" style="whiteSpace=wrap;html=1;aspect=fixed;fillColor=#e1d5e7;strokeColor=#9673a6;" vertex="1" parent="1">
          <mxGeometry x="-190" y="1360" width="80" height="80" as="geometry" />
        </mxCell>
        <mxCell id="gEwuZWGYTY2QDqaIFwxL-15" value="" style="whiteSpace=wrap;html=1;aspect=fixed;fillColor=#e1d5e7;strokeColor=#9673a6;" vertex="1" parent="1">
          <mxGeometry x="120" y="1200" width="80" height="80" as="geometry" />
        </mxCell>
        <mxCell id="gEwuZWGYTY2QDqaIFwxL-17" value="" style="whiteSpace=wrap;html=1;aspect=fixed;fillColor=#e1d5e7;strokeColor=#9673a6;" vertex="1" parent="1">
          <mxGeometry x="240" y="1200" width="80" height="80" as="geometry" />
        </mxCell>
        <mxCell id="gEwuZWGYTY2QDqaIFwxL-18" value="" style="whiteSpace=wrap;html=1;aspect=fixed;fillColor=#e1d5e7;strokeColor=#9673a6;" vertex="1" parent="1">
          <mxGeometry x="390" y="1200" width="80" height="80" as="geometry" />
        </mxCell>
        <mxCell id="gEwuZWGYTY2QDqaIFwxL-19" value="" style="whiteSpace=wrap;html=1;aspect=fixed;fillColor=#e1d5e7;strokeColor=#9673a6;" vertex="1" parent="1">
          <mxGeometry x="510" y="1200" width="80" height="80" as="geometry" />
        </mxCell>
        <mxCell id="gEwuZWGYTY2QDqaIFwxL-21" value="" style="shape=flexArrow;endArrow=classic;html=1;rounded=0;endWidth=38.333333333333336;endSize=12.516666666666667;width=30;fillColor=#dae8fc;strokeColor=#6c8ebf;" edge="1" parent="1">
          <mxGeometry width="50" height="50" relative="1" as="geometry">
            <mxPoint x="164.99999999999994" y="1430" as="sourcePoint" />
            <mxPoint x="164.99999999999994" y="1330" as="targetPoint" />
          </mxGeometry>
        </mxCell>
        <mxCell id="gEwuZWGYTY2QDqaIFwxL-23" value="&lt;font style=&quot;font-size: 18px;&quot;&gt;front&lt;/font&gt;" style="edgeLabel;html=1;align=center;verticalAlign=middle;resizable=0;points=[];" vertex="1" connectable="0" parent="gEwuZWGYTY2QDqaIFwxL-21">
          <mxGeometry x="-0.0842" relative="1" as="geometry">
            <mxPoint y="1" as="offset" />
          </mxGeometry>
        </mxCell>
        <mxCell id="gEwuZWGYTY2QDqaIFwxL-22" value="&lt;font style=&quot;font-size: 24px;&quot;&gt;rear&lt;/font&gt;" style="shape=flexArrow;endArrow=classic;html=1;rounded=0;endWidth=38.333333333333336;endSize=12.516666666666667;width=30;fillColor=#dae8fc;strokeColor=#6c8ebf;" edge="1" parent="1">
          <mxGeometry width="50" height="50" relative="1" as="geometry">
            <mxPoint x="563.8199999999999" y="1410" as="sourcePoint" />
            <mxPoint x="563.8199999999999" y="1310" as="targetPoint" />
            <mxPoint y="1" as="offset" />
          </mxGeometry>
        </mxCell>
        <mxCell id="gEwuZWGYTY2QDqaIFwxL-24" value="&lt;p style=&quot;language:en-JO;margin-top:0pt;margin-bottom:0pt;margin-left:0in;&lt;br/&gt;text-align:left;direction:ltr;unicode-bidi:embed;mso-line-break-override:none;&lt;br/&gt;word-break:normal;punctuation-wrap:hanging&quot;&gt;&lt;br&gt;&lt;/p&gt;&lt;p style=&quot;language:en-JO;margin-top:0pt;margin-bottom:0pt;margin-left:0in;&lt;br/&gt;text-align:left;direction:ltr;unicode-bidi:embed;mso-line-break-override:none;&lt;br/&gt;word-break:normal;punctuation-wrap:hanging&quot;&gt;&lt;font style=&quot;font-size: 18px;&quot;&gt;inqueue&lt;/font&gt;&lt;/p&gt;&lt;p style=&quot;language:en-JO;margin-top:0pt;margin-bottom:0pt;margin-left:0in;&lt;br/&gt;text-align:left;direction:ltr;unicode-bidi:embed;mso-line-break-override:none;&lt;br/&gt;word-break:normal;punctuation-wrap:hanging&quot;&gt;&lt;br&gt;&lt;/p&gt;&lt;div style=&quot;language:en-JO;line-height:120%;margin-top:10.0pt;margin-bottom:&lt;br/&gt;0pt;margin-left:.25in;text-indent:-.25in;text-align:left;direction:ltr;&lt;br/&gt;unicode-bidi:embed;mso-line-break-override:none;word-break:normal;punctuation-wrap:&lt;br/&gt;hanging&quot;&gt;&lt;span style=&quot;font-size:20.0pt&quot;&gt;&lt;/span&gt;&lt;span style=&quot;font-size:20.0pt;font-family:&amp;quot;Söhne Mono&amp;quot;;mso-ascii-font-family:&amp;quot;Söhne Mono&amp;quot;;&lt;br/&gt;mso-fareast-font-family:+mn-ea;mso-bidi-font-family:+mn-cs;mso-fareast-theme-font:&lt;br/&gt;minor-fareast;mso-bidi-theme-font:minor-bidi;color:black;mso-color-index:1;&lt;br/&gt;mso-font-kerning:12.0pt;language:en-US;font-weight:normal;font-style:normal;&lt;br/&gt;mso-style-textfill-type:solid;mso-style-textfill-fill-themecolor:text1;&lt;br/&gt;mso-style-textfill-fill-color:black;mso-style-textfill-fill-alpha:100.0%&quot;&gt;if (front == -1)&amp;nbsp;&lt;/span&gt;&lt;/div&gt;&lt;div style=&quot;language:en-JO;line-height:120%;margin-top:10.0pt;margin-bottom:&lt;br/&gt;0pt;margin-left:.25in;text-indent:-.25in;text-align:left;direction:ltr;&lt;br/&gt;unicode-bidi:embed;mso-line-break-override:none;word-break:normal;punctuation-wrap:&lt;br/&gt;hanging&quot;&gt;&lt;span style=&quot;font-size:20.0pt;font-family:&amp;quot;Söhne Mono&amp;quot;;mso-ascii-font-family:&amp;quot;Söhne Mono&amp;quot;;&lt;br/&gt;mso-fareast-font-family:+mn-ea;mso-bidi-font-family:+mn-cs;mso-fareast-theme-font:&lt;br/&gt;minor-fareast;mso-bidi-theme-font:minor-bidi;color:black;mso-color-index:1;&lt;br/&gt;mso-font-kerning:12.0pt;language:en-US;font-weight:normal;font-style:normal;&lt;br/&gt;mso-style-textfill-type:solid;mso-style-textfill-fill-themecolor:text1;&lt;br/&gt;mso-style-textfill-fill-color:black;mso-style-textfill-fill-alpha:100.0%&quot;&gt;{&lt;/span&gt;&lt;/div&gt;&lt;div style=&quot;language:en-JO;line-height:120%;margin-top:10.0pt;margin-bottom:&lt;br/&gt;0pt;margin-left:.25in;text-indent:-.25in;text-align:left;direction:ltr;&lt;br/&gt;unicode-bidi:embed;mso-line-break-override:none;word-break:normal;punctuation-wrap:&lt;br/&gt;hanging&quot;&gt;&lt;span style=&quot;font-size:20.0pt;font-family:&amp;quot;Söhne Mono&amp;quot;;mso-ascii-font-family:&amp;quot;Söhne Mono&amp;quot;;&lt;br/&gt;mso-fareast-font-family:+mn-ea;mso-bidi-font-family:+mn-cs;mso-fareast-theme-font:&lt;br/&gt;minor-fareast;mso-bidi-theme-font:minor-bidi;color:black;mso-color-index:1;&lt;br/&gt;mso-font-kerning:12.0pt;language:en-US;font-weight:normal;font-style:normal;&lt;br/&gt;mso-style-textfill-type:solid;mso-style-textfill-fill-themecolor:text1;&lt;br/&gt;mso-style-textfill-fill-color:black;mso-style-textfill-fill-alpha:100.0%&quot;&gt;&amp;nbsp;front = 0;&amp;nbsp;&lt;/span&gt;&lt;/div&gt;&lt;div style=&quot;language:en-JO;line-height:120%;margin-top:10.0pt;margin-bottom:&lt;br/&gt;0pt;margin-left:.25in;text-indent:-.25in;text-align:left;direction:ltr;&lt;br/&gt;unicode-bidi:embed;mso-line-break-override:none;word-break:normal;punctuation-wrap:&lt;br/&gt;hanging&quot;&gt;&lt;span style=&quot;font-size:20.0pt;font-family:&amp;quot;Söhne Mono&amp;quot;;mso-ascii-font-family:&amp;quot;Söhne Mono&amp;quot;;&lt;br/&gt;mso-fareast-font-family:+mn-ea;mso-bidi-font-family:+mn-cs;mso-fareast-theme-font:&lt;br/&gt;minor-fareast;mso-bidi-theme-font:minor-bidi;color:black;mso-color-index:1;&lt;br/&gt;mso-font-kerning:12.0pt;language:en-US;font-weight:normal;font-style:normal;&lt;br/&gt;mso-style-textfill-type:solid;mso-style-textfill-fill-themecolor:text1;&lt;br/&gt;mso-style-textfill-fill-color:black;mso-style-textfill-fill-alpha:100.0%&quot;&gt;}&amp;nbsp;&lt;/span&gt;&lt;/div&gt;&lt;div style=&quot;language:en-JO;line-height:120%;margin-top:10.0pt;margin-bottom:&lt;br/&gt;0pt;margin-left:.25in;text-indent:-.25in;text-align:left;direction:ltr;&lt;br/&gt;unicode-bidi:embed;mso-line-break-override:none;word-break:normal;punctuation-wrap:&lt;br/&gt;hanging&quot;&gt;&lt;span style=&quot;font-size:20.0pt;font-family:&amp;quot;Söhne Mono&amp;quot;;mso-ascii-font-family:&amp;quot;Söhne Mono&amp;quot;;&lt;br/&gt;mso-fareast-font-family:+mn-ea;mso-bidi-font-family:+mn-cs;mso-fareast-theme-font:&lt;br/&gt;minor-fareast;mso-bidi-theme-font:minor-bidi;color:black;mso-color-index:1;&lt;br/&gt;mso-font-kerning:12.0pt;language:en-US;font-weight:normal;font-style:normal;&lt;br/&gt;mso-style-textfill-type:solid;mso-style-textfill-fill-themecolor:text1;&lt;br/&gt;mso-style-textfill-fill-color:black;mso-style-textfill-fill-alpha:100.0%&quot;&gt;queue[++rear] = data;&amp;nbsp;&lt;/span&gt;&lt;/div&gt;&lt;div style=&quot;language:en-JO;line-height:120%;margin-top:10.0pt;margin-bottom:&lt;br/&gt;0pt;margin-left:.25in;text-indent:-.25in;text-align:left;direction:ltr;&lt;br/&gt;unicode-bidi:embed;mso-line-break-override:none;word-break:normal;punctuation-wrap:&lt;br/&gt;hanging&quot;&gt;&lt;span style=&quot;font-size:20.0pt;font-family:&amp;quot;Söhne Mono&amp;quot;;mso-ascii-font-family:&amp;quot;Söhne Mono&amp;quot;;&lt;br/&gt;mso-fareast-font-family:+mn-ea;mso-bidi-font-family:+mn-cs;mso-fareast-theme-font:&lt;br/&gt;minor-fareast;mso-bidi-theme-font:minor-bidi;color:black;mso-color-index:1;&lt;br/&gt;mso-font-kerning:12.0pt;language:en-US;font-weight:normal;font-style:normal;&lt;br/&gt;mso-style-textfill-type:solid;mso-style-textfill-fill-themecolor:text1;&lt;br/&gt;mso-style-textfill-fill-color:black;mso-style-textfill-fill-alpha:100.0%&quot;&gt;}&lt;/span&gt;&lt;/div&gt;" style="text;whiteSpace=wrap;html=1;fillColor=#d5e8d4;strokeColor=#82b366;" vertex="1" parent="1">
          <mxGeometry x="-320" y="1650" width="390" height="240" as="geometry" />
        </mxCell>
        <mxCell id="gEwuZWGYTY2QDqaIFwxL-25" value="&lt;p style=&quot;language:en-JO;margin-top:0pt;margin-bottom:0pt;margin-left:0in;&lt;br/&gt;text-align:left;direction:ltr;unicode-bidi:embed;mso-line-break-override:none;&lt;br/&gt;word-break:normal;punctuation-wrap:hanging&quot;&gt;&lt;span style=&quot;font-family: &amp;quot;Söhne Mono&amp;quot;; font-size: 20pt; text-indent: -0.25in; background-color: initial;&quot;&gt;dequeue&lt;/span&gt;&lt;/p&gt;&lt;p style=&quot;language:en-JO;margin-top:0pt;margin-bottom:0pt;margin-left:0in;&lt;br/&gt;text-align:left;direction:ltr;unicode-bidi:embed;mso-line-break-override:none;&lt;br/&gt;word-break:normal;punctuation-wrap:hanging&quot;&gt;&lt;span style=&quot;font-family: &amp;quot;Söhne Mono&amp;quot;; font-size: 20pt; text-indent: -0.25in; background-color: initial;&quot;&gt;&lt;br&gt;&lt;/span&gt;&lt;/p&gt;&lt;p style=&quot;language:en-JO;margin-top:0pt;margin-bottom:0pt;margin-left:0in;&lt;br/&gt;text-align:left;direction:ltr;unicode-bidi:embed;mso-line-break-override:none;&lt;br/&gt;word-break:normal;punctuation-wrap:hanging&quot;&gt;&lt;span style=&quot;font-family: &amp;quot;Söhne Mono&amp;quot;; font-size: 20pt; text-indent: -0.25in; background-color: initial;&quot;&gt;if (front &amp;gt;= rear)&lt;/span&gt;&lt;br&gt;&lt;/p&gt;&lt;div style=&quot;language:en-JO;line-height:120%;margin-top:10.0pt;margin-bottom:&lt;br/&gt;0pt;margin-left:.25in;text-indent:-.25in;text-align:left;direction:ltr;&lt;br/&gt;unicode-bidi:embed;mso-line-break-override:none;word-break:normal;punctuation-wrap:&lt;br/&gt;hanging&quot;&gt;&lt;span style=&quot;font-size:20.0pt;font-family:&amp;quot;Söhne Mono&amp;quot;;mso-ascii-font-family:&amp;quot;Söhne Mono&amp;quot;;&lt;br/&gt;mso-fareast-font-family:+mn-ea;mso-bidi-font-family:+mn-cs;mso-fareast-theme-font:&lt;br/&gt;minor-fareast;mso-bidi-theme-font:minor-bidi;color:black;mso-color-index:1;&lt;br/&gt;mso-font-kerning:12.0pt;language:en-US;font-weight:normal;font-style:normal;&lt;br/&gt;mso-style-textfill-type:solid;mso-style-textfill-fill-themecolor:text1;&lt;br/&gt;mso-style-textfill-fill-color:black;mso-style-textfill-fill-alpha:100.0%&quot;&gt;&amp;nbsp;{&amp;nbsp;&lt;/span&gt;&lt;/div&gt;&lt;div style=&quot;language:en-JO;line-height:120%;margin-top:10.0pt;margin-bottom:&lt;br/&gt;0pt;margin-left:.25in;text-indent:-.25in;text-align:left;direction:ltr;&lt;br/&gt;unicode-bidi:embed;mso-line-break-override:none;word-break:normal;punctuation-wrap:&lt;br/&gt;hanging&quot;&gt;&lt;span style=&quot;font-size:20.0pt;font-family:&amp;quot;Söhne Mono&amp;quot;;mso-ascii-font-family:&amp;quot;Söhne Mono&amp;quot;;&lt;br/&gt;mso-fareast-font-family:+mn-ea;mso-bidi-font-family:+mn-cs;mso-fareast-theme-font:&lt;br/&gt;minor-fareast;mso-bidi-theme-font:minor-bidi;color:black;mso-color-index:1;&lt;br/&gt;mso-font-kerning:12.0pt;language:en-US;font-weight:normal;font-style:normal;&lt;br/&gt;mso-style-textfill-type:solid;mso-style-textfill-fill-themecolor:text1;&lt;br/&gt;mso-style-textfill-fill-color:black;mso-style-textfill-fill-alpha:100.0%&quot;&gt;front = -1; rear = -1;&amp;nbsp;&lt;/span&gt;&lt;/div&gt;&lt;div style=&quot;language:en-JO;line-height:120%;margin-top:10.0pt;margin-bottom:&lt;br/&gt;0pt;margin-left:.25in;text-indent:-.25in;text-align:left;direction:ltr;&lt;br/&gt;unicode-bidi:embed;mso-line-break-override:none;word-break:normal;punctuation-wrap:&lt;br/&gt;hanging&quot;&gt;&lt;span style=&quot;font-size:20.0pt;font-family:&amp;quot;Söhne Mono&amp;quot;;mso-ascii-font-family:&amp;quot;Söhne Mono&amp;quot;;&lt;br/&gt;mso-fareast-font-family:+mn-ea;mso-bidi-font-family:+mn-cs;mso-fareast-theme-font:&lt;br/&gt;minor-fareast;mso-bidi-theme-font:minor-bidi;color:black;mso-color-index:1;&lt;br/&gt;mso-font-kerning:12.0pt;language:en-US;font-weight:normal;font-style:normal;&lt;br/&gt;mso-style-textfill-type:solid;mso-style-textfill-fill-themecolor:text1;&lt;br/&gt;mso-style-textfill-fill-color:black;mso-style-textfill-fill-alpha:100.0%&quot;&gt;}&amp;nbsp;&lt;/span&gt;&lt;/div&gt;&lt;div style=&quot;language:en-JO;line-height:120%;margin-top:10.0pt;margin-bottom:&lt;br/&gt;0pt;margin-left:.25in;text-indent:-.25in;text-align:left;direction:ltr;&lt;br/&gt;unicode-bidi:embed;mso-line-break-override:none;word-break:normal;punctuation-wrap:&lt;br/&gt;hanging&quot;&gt;&lt;span style=&quot;font-size:20.0pt;font-family:&amp;quot;Söhne Mono&amp;quot;;mso-ascii-font-family:&amp;quot;Söhne Mono&amp;quot;;&lt;br/&gt;mso-fareast-font-family:+mn-ea;mso-bidi-font-family:+mn-cs;mso-fareast-theme-font:&lt;br/&gt;minor-fareast;mso-bidi-theme-font:minor-bidi;color:black;mso-color-index:1;&lt;br/&gt;mso-font-kerning:12.0pt;language:en-US;font-weight:normal;font-style:normal;&lt;br/&gt;mso-style-textfill-type:solid;mso-style-textfill-fill-themecolor:text1;&lt;br/&gt;mso-style-textfill-fill-color:black;mso-style-textfill-fill-alpha:100.0%&quot;&gt;else&amp;nbsp;&lt;/span&gt;&lt;/div&gt;&lt;div style=&quot;language:en-JO;line-height:120%;margin-top:10.0pt;margin-bottom:&lt;br/&gt;0pt;margin-left:.25in;text-indent:-.25in;text-align:left;direction:ltr;&lt;br/&gt;unicode-bidi:embed;mso-line-break-override:none;word-break:normal;punctuation-wrap:&lt;br/&gt;hanging&quot;&gt;&lt;span style=&quot;font-size:20.0pt;font-family:&amp;quot;Söhne Mono&amp;quot;;mso-ascii-font-family:&amp;quot;Söhne Mono&amp;quot;;&lt;br/&gt;mso-fareast-font-family:+mn-ea;mso-bidi-font-family:+mn-cs;mso-fareast-theme-font:&lt;br/&gt;minor-fareast;mso-bidi-theme-font:minor-bidi;color:black;mso-color-index:1;&lt;br/&gt;mso-font-kerning:12.0pt;language:en-US;font-weight:normal;font-style:normal;&lt;br/&gt;mso-style-textfill-type:solid;mso-style-textfill-fill-themecolor:text1;&lt;br/&gt;mso-style-textfill-fill-color:black;mso-style-textfill-fill-alpha:100.0%&quot;&gt;{&amp;nbsp;&lt;/span&gt;&lt;/div&gt;&lt;div style=&quot;language:en-JO;line-height:120%;margin-top:10.0pt;margin-bottom:&lt;br/&gt;0pt;margin-left:.25in;text-indent:-.25in;text-align:left;direction:ltr;&lt;br/&gt;unicode-bidi:embed;mso-line-break-override:none;word-break:normal;punctuation-wrap:&lt;br/&gt;hanging&quot;&gt;&lt;span style=&quot;font-size:20.0pt;font-family:&amp;quot;Söhne Mono&amp;quot;;mso-ascii-font-family:&amp;quot;Söhne Mono&amp;quot;;&lt;br/&gt;mso-fareast-font-family:+mn-ea;mso-bidi-font-family:+mn-cs;mso-fareast-theme-font:&lt;br/&gt;minor-fareast;mso-bidi-theme-font:minor-bidi;color:black;mso-color-index:1;&lt;br/&gt;mso-font-kerning:12.0pt;language:en-US;font-weight:normal;font-style:normal;&lt;br/&gt;mso-style-textfill-type:solid;mso-style-textfill-fill-themecolor:text1;&lt;br/&gt;mso-style-textfill-fill-color:black;mso-style-textfill-fill-alpha:100.0%&quot;&gt;front++;&lt;/span&gt;&lt;/div&gt;&lt;div style=&quot;language:en-JO;line-height:120%;margin-top:10.0pt;margin-bottom:&lt;br/&gt;0pt;margin-left:.25in;text-indent:-.25in;text-align:left;direction:ltr;&lt;br/&gt;unicode-bidi:embed;mso-line-break-override:none;word-break:normal;punctuation-wrap:&lt;br/&gt;hanging&quot;&gt;&lt;span style=&quot;font-size:20.0pt;font-family:&amp;quot;Söhne Mono&amp;quot;;mso-ascii-font-family:&amp;quot;Söhne Mono&amp;quot;;&lt;br/&gt;mso-fareast-font-family:+mn-ea;mso-bidi-font-family:+mn-cs;mso-fareast-theme-font:&lt;br/&gt;minor-fareast;mso-bidi-theme-font:minor-bidi;color:black;mso-color-index:1;&lt;br/&gt;mso-font-kerning:12.0pt;language:en-US;font-weight:normal;font-style:normal;&lt;br/&gt;mso-style-textfill-type:solid;mso-style-textfill-fill-themecolor:text1;&lt;br/&gt;mso-style-textfill-fill-color:black;mso-style-textfill-fill-alpha:100.0%&quot;&gt;}&lt;/span&gt;&lt;/div&gt;" style="text;whiteSpace=wrap;html=1;fillColor=#d5e8d4;strokeColor=#82b366;" vertex="1" parent="1">
          <mxGeometry x="285" y="1620" width="280" height="330" as="geometry" />
        </mxCell>
        <mxCell id="gEwuZWGYTY2QDqaIFwxL-26" value="" style="whiteSpace=wrap;html=1;aspect=fixed;fillColor=#f8cecc;strokeColor=#b85450;" vertex="1" parent="1">
          <mxGeometry x="-220" y="2320" width="80" height="80" as="geometry" />
        </mxCell>
        <mxCell id="gEwuZWGYTY2QDqaIFwxL-27" value="" style="whiteSpace=wrap;html=1;aspect=fixed;fillColor=#f8cecc;strokeColor=#b85450;" vertex="1" parent="1">
          <mxGeometry x="-100" y="2320" width="80" height="80" as="geometry" />
        </mxCell>
        <mxCell id="gEwuZWGYTY2QDqaIFwxL-28" value="" style="whiteSpace=wrap;html=1;aspect=fixed;fillColor=#f8cecc;strokeColor=#b85450;" vertex="1" parent="1">
          <mxGeometry x="30" y="2320" width="80" height="80" as="geometry" />
        </mxCell>
        <mxCell id="gEwuZWGYTY2QDqaIFwxL-29" value="" style="whiteSpace=wrap;html=1;aspect=fixed;fillColor=#f8cecc;strokeColor=#b85450;" vertex="1" parent="1">
          <mxGeometry x="295" y="2320" width="80" height="80" as="geometry" />
        </mxCell>
        <mxCell id="gEwuZWGYTY2QDqaIFwxL-30" value="" style="whiteSpace=wrap;html=1;aspect=fixed;fillColor=#f8cecc;strokeColor=#b85450;" vertex="1" parent="1">
          <mxGeometry x="170" y="2320" width="80" height="80" as="geometry" />
        </mxCell>
        <mxCell id="gEwuZWGYTY2QDqaIFwxL-31" value="" style="shape=flexArrow;endArrow=classic;html=1;rounded=0;endWidth=38.333333333333336;endSize=12.516666666666667;width=30;fillColor=#dae8fc;strokeColor=#6c8ebf;" edge="1" parent="1">
          <mxGeometry width="50" height="50" relative="1" as="geometry">
            <mxPoint x="340" y="2540" as="sourcePoint" />
            <mxPoint x="340" y="2440" as="targetPoint" />
          </mxGeometry>
        </mxCell>
        <mxCell id="gEwuZWGYTY2QDqaIFwxL-32" value="&lt;font style=&quot;font-size: 18px;&quot;&gt;iend&amp;nbsp;&lt;/font&gt;" style="edgeLabel;html=1;align=center;verticalAlign=middle;resizable=0;points=[];" vertex="1" connectable="0" parent="gEwuZWGYTY2QDqaIFwxL-31">
          <mxGeometry x="-0.0842" relative="1" as="geometry">
            <mxPoint y="1" as="offset" />
          </mxGeometry>
        </mxCell>
        <mxCell id="gEwuZWGYTY2QDqaIFwxL-34" value="&lt;font style=&quot;font-size: 24px;&quot;&gt;list&lt;/font&gt;" style="text;html=1;strokeColor=none;fillColor=none;align=center;verticalAlign=middle;whiteSpace=wrap;rounded=0;" vertex="1" parent="1">
          <mxGeometry x="-45" y="2170" width="210" height="90" as="geometry" />
        </mxCell>
        <mxCell id="gEwuZWGYTY2QDqaIFwxL-35" value="6" style="rounded=0;whiteSpace=wrap;html=1;fillColor=#fff2cc;strokeColor=#d6b656;" vertex="1" parent="1">
          <mxGeometry x="890" y="2910" width="120" height="60" as="geometry" />
        </mxCell>
        <mxCell id="gEwuZWGYTY2QDqaIFwxL-36" value="22" style="whiteSpace=wrap;html=1;aspect=fixed;fillColor=#f8cecc;strokeColor=#b85450;" vertex="1" parent="1">
          <mxGeometry x="895" y="2860" width="50" height="50" as="geometry" />
        </mxCell>
        <mxCell id="gEwuZWGYTY2QDqaIFwxL-37" value="null" style="rounded=0;whiteSpace=wrap;html=1;fillColor=#e1d5e7;strokeColor=#9673a6;" vertex="1" parent="1">
          <mxGeometry x="1015" y="2910" width="80" height="60" as="geometry" />
        </mxCell>
        <mxCell id="gEwuZWGYTY2QDqaIFwxL-38" value="7" style="rounded=0;whiteSpace=wrap;html=1;fillColor=#fff2cc;strokeColor=#d6b656;" vertex="1" parent="1">
          <mxGeometry x="350" y="2900" width="120" height="60" as="geometry" />
        </mxCell>
        <mxCell id="gEwuZWGYTY2QDqaIFwxL-39" value="50" style="whiteSpace=wrap;html=1;aspect=fixed;fillColor=#f8cecc;strokeColor=#b85450;" vertex="1" parent="1">
          <mxGeometry x="350" y="2850" width="50" height="50" as="geometry" />
        </mxCell>
        <mxCell id="gEwuZWGYTY2QDqaIFwxL-40" value="1" style="rounded=0;whiteSpace=wrap;html=1;fillColor=#e1d5e7;strokeColor=#9673a6;" vertex="1" parent="1">
          <mxGeometry x="470" y="2900" width="80" height="60" as="geometry" />
        </mxCell>
        <mxCell id="gEwuZWGYTY2QDqaIFwxL-41" value="8" style="rounded=0;whiteSpace=wrap;html=1;fillColor=#fff2cc;strokeColor=#d6b656;" vertex="1" parent="1">
          <mxGeometry x="630" y="2900" width="120" height="60" as="geometry" />
        </mxCell>
        <mxCell id="gEwuZWGYTY2QDqaIFwxL-42" value="1" style="whiteSpace=wrap;html=1;aspect=fixed;fillColor=#f8cecc;strokeColor=#b85450;" vertex="1" parent="1">
          <mxGeometry x="620" y="2850" width="50" height="50" as="geometry" />
        </mxCell>
        <mxCell id="gEwuZWGYTY2QDqaIFwxL-43" value="22" style="rounded=0;whiteSpace=wrap;html=1;fillColor=#e1d5e7;strokeColor=#9673a6;" vertex="1" parent="1">
          <mxGeometry x="740" y="2900" width="80" height="60" as="geometry" />
        </mxCell>
      </root>
    </mxGraphModel>
  </diagram>
</mxfile>
